<?xml version="1.0" encoding="utf-8"?>
<!-- Generator: Adobe Illustrator 27.1.1, SVG Export Plug-In . SVG Version: 6.00 Build 0)  -->
<svg version="1.1" id="Layer_1" xmlns="http://www.w3.org/2000/svg" xmlns:xlink="http://www.w3.org/1999/xlink" x="0px" y="0px"
	 viewBox="0 0 7769 1137.2" style="enable-background:new 0 0 7769 1137.2;" xml:space="preserve">
<style type="text/css">
	.st0{fill:#FFFFFF;}
	.st1{fill:#0078D4;}
	.st2{fill-rule:evenodd;clip-rule:evenodd;fill:#0078D4;}
</style>
<rect y="0" class="st0" width="7769" height="1137.2"/>
<g>
	<g>
		<g>
			<g>
				<rect x="3057" y="301.8" class="st1" width="19.9" height="533.5"/>
				<g>
					<path class="st1" d="M3718.4,647.7c-2.8,11.4-4.4,20.7-4.8,27.6h-0.9c-0.9-10.3-2.5-19-4.4-26.6l-56.5-220.1h-51l-61,218.4
						c-3.2,12.2-5.3,21.6-5.7,28.7h-1.1c-0.4-9.9-1.9-19.6-4.2-28.7l-54.2-218.5h-54.2l83.4,298.2h57.2l57-209.1
						c2.7-9.2,4.4-18.8,5.1-28.7h0.9c0.4,10.6,2.1,20.2,4.4,29.1l56.8,208.9h56.1l81.8-298.4v-0.2h-51.3L3718.4,647.7z"/>
					<rect x="3843.9" y="513.8" class="st1" width="48.3" height="213.2"/>
					<path class="st1" d="M3868,428.7c-7.8,0-14.7,2.5-20.2,7.8c-5.7,5.3-8.5,12-8.5,19.8s3,14.5,8.5,19.6
						c5.5,5.3,12.4,7.8,20.2,7.8c8.2,0,15.2-2.8,20.9-8c5.7-5.3,8.5-11.8,8.5-19.3c0-7.8-2.7-14.5-8.5-19.8
						C3883.2,431.3,3876.3,428.7,3868,428.7z"/>
					<path class="st1" d="M4058.5,508.7c-30.1,0-53.3,13.5-69.2,40.5h-0.9v-35.4h-48.5V727h48.5V605.5c0-16.7,4.8-30.8,14.5-41.8
						s21.8-16.5,36.5-16.5c28.3,0,42.2,20,42.2,59.7V727h48.3V596.5c0-28.5-6.2-50-18.4-65.2
						C4099.4,516.3,4081.7,508.7,4058.5,508.7z"/>
					<path class="st1" d="M4319.5,543h-0.9c-13.1-23-34-34.4-62.7-34.4c-28.9,0-52.1,10.8-69.6,31.9c-17.5,21.3-26.2,49.6-26.2,84.8
						c0,32.9,7.8,58.8,23.6,77.9c15.8,19.3,36.7,28.7,62.9,28.7c32.4,0,56.3-13.5,71.9-41.1h0.9v36.3h48.3V411.4h-48.2L4319.5,543
						L4319.5,543z M4320.2,629.6c0,18.4-5.3,33.8-15.2,46c-10.3,12.2-23.6,18.1-40.2,18.1c-16.7,0-30.1-6.2-39.9-18.8
						c-9.9-12.4-15-29.6-15-51.3c0-23.9,5.1-42.5,15.4-56.1s24.3-20.2,42.5-20.2c15.2,0,27.8,5.3,37.7,15.8
						c9.9,10.6,14.7,23.4,14.7,38.6V629.6z"/>
					<path class="st1" d="M4515.7,508.7c-34.6,0-62.3,9.9-82.7,30.1c-20.5,20-30.8,48.1-30.8,83.8c0,32.9,9.9,59.3,29.4,79.3
						c19.8,20,46,29.9,78.9,29.9c33.8,0,60.9-10.1,80.8-30.6c20-20.7,30.1-47.7,30.1-81.8c0-34.6-9.2-61.8-27.8-81.3
						C4574.9,518.6,4548.9,508.7,4515.7,508.7z M4556.3,674.9c-10.3,12.6-24.9,18.8-43.9,18.8c-18.6,0-33.5-6.4-44.5-19.3
						c-11-12.9-16.5-30.6-16.5-52.8c0-23.2,5.5-41.4,16.5-54.4c11-13.1,26-19.8,44.8-19.8c19,0,33.5,6.4,43.7,19.3
						c10.3,12.6,15.4,30.8,15.4,54.2C4571.7,644.3,4566.4,662.2,4556.3,674.9z"/>
					<path class="st1" d="M4858.2,667.9c-1.9,7.1-3,13.3-3.2,18.4h-1.4c-0.7-7.4-1.6-13.5-2.8-18.4l-38.3-154.1h-45.3L4724,667
						c-1.9,6.7-3,13.1-3.4,18.8h-1.4c-0.4-7.6-1.4-13.8-2.5-18.4l-38.6-153.7h-49.8l62.3,212.9h49.6l42-144.7
						c2.1-7.6,3.4-13.5,3.6-18.4h0.9c0.4,7.1,1.4,13.3,3,18.8l38.8,144.5h50.6l62.9-213.2h-46L4858.2,667.9z"/>
					<path class="st1" d="M5096.7,645.4c-2.7-6.4-6.9-12.2-12-17c-5.1-5.1-11.2-9.5-18.6-13.3c-7.1-4-15.4-7.8-24.5-11.4
						c-6.9-2.5-13.1-4.6-18.4-6.7c-5.3-2.1-9.9-4.2-13.8-6.7c-4-2.5-6.9-5.3-8.7-8.5c-2.1-3.2-3-7.1-3-11.8c0-3.6,1.1-7.1,3-10.3
						s4.6-5.7,8-8s7.8-4.2,12.6-5.3c4.8-1.1,10.3-1.9,16.5-1.9c19.6,0,36.7,5.1,51.7,15.4v-42.2c-15.6-5.9-33.1-8.9-52.8-8.9
						c-11,0-21.8,1.4-32.1,4.2c-10.3,2.8-19.6,6.9-27.8,12.2c-8.2,5.3-14.7,12-19.6,19.8c-4.8,7.8-7.4,16.7-7.4,27.2
						c0,8.3,1.1,15.6,3.4,21.8c2.5,6.2,5.9,12,10.6,16.7c4.6,5.1,10.3,9.5,17.5,13.3c7.1,4,15,7.6,23.6,11
						c7.1,2.8,13.5,5.1,19.3,7.1c5.7,2.1,10.8,4.6,15,7.1s7.6,5.5,10.1,8.9s3.6,7.6,3.6,12.4c0,17.3-14.5,25.7-43.7,25.7
						c-21.8,0-41.6-6.9-59.7-20.7v44.8c17,7.6,37.2,11.4,60.4,12c12.2,0,23.6-1.4,34.4-4c10.8-2.5,20.5-6.4,28.7-11.8
						c8.3-5.3,15-12,20-20c5.1-8,7.6-17.5,7.6-28.3C5100.8,659.5,5099.4,651.9,5096.7,645.4z"/>
				</g>
				<g>
					<path class="st1" d="M1361.8,634.1c-2.5,10.5-4,18.9-4.5,25.3h-0.8c-0.8-9.5-2.3-17.5-4-24.4l-51.8-201.8H1254l-56.1,200.4
						c-2.9,11.1-4.9,19.8-5.3,26.3h-1c-0.4-9.1-1.7-17.9-3.7-26.3l-49.7-200.4h-49.7l76.5,273.5h52.4l52.2-191.7
						c2.5-8.4,4-17.3,4.7-26.3h0.8c0.4,9.7,1.9,18.5,4,26.7l52,191.5h51.4l75-273.7V433h-47L1361.8,634.1z"/>
					<rect x="1476.9" y="511.2" class="st1" width="44.2" height="195.6"/>
					<path class="st1" d="M1499,433.3c-7.2,0-13.5,2.3-18.5,7.2c-5.3,4.9-7.8,10.9-7.8,18.1s2.7,13.3,7.8,17.9
						c5.1,4.9,11.3,7.2,18.5,7.2c7.6,0,13.9-2.5,19.1-7.4c5.3-4.9,7.8-10.7,7.8-17.7c0-7.2-2.5-13.3-7.8-18.1
						C1512.9,435.6,1506.5,433.3,1499,433.3z"/>
					<path class="st1" d="M1673.6,506.7c-27.6,0-48.9,12.5-63.5,37h-0.8v-32.5h-44.4v195.6h44.4V595.3c0-15.4,4.5-28.2,13.3-38.4
						c8.8-10.1,20-15.2,33.5-15.2c25.9,0,38.8,18.3,38.8,54.8v110.2h44.2V587.1c0-26.1-5.7-46-16.9-59.8
						C1711.2,513.6,1694.9,506.7,1673.6,506.7z"/>
					<path class="st1" d="M1913,538.1h-0.8c-12-21.1-31.2-31.6-57.5-31.6c-26.5,0-47.9,9.9-63.9,29.3c-16,19.6-24,45.5-24,77.7
						c0,30.2,7.2,54,21.7,71.5c14.6,17.7,33.7,26.3,57.7,26.3c29.8,0,51.6-12.5,66-37.8h0.8v33.3h44.2V417.3H1913V538.1L1913,538.1z
						 M1913.6,617.4c0,16.9-4.9,31-13.9,42.1c-9.5,11.1-21.7,16.6-36.8,16.6c-15.4,0-27.6-5.7-36.6-17.3
						c-9.1-11.3-13.7-27.2-13.7-47c0-21.9,4.7-39,14.1-51.4c9.5-12.5,22.4-18.5,39-18.5c13.9,0,25.5,4.9,34.5,14.6
						s13.5,21.5,13.5,35.4L1913.6,617.4L1913.6,617.4L1913.6,617.4z"/>
					<path class="st1" d="M2092.9,506.7c-31.8,0-57.1,9.1-75.8,27.6c-18.7,18.3-28.2,44-28.2,76.9c0,30.2,9.1,54.4,26.9,72.7
						c18.1,18.3,42.1,27.4,72.3,27.4c31,0,55.9-9.3,74.2-28c18.3-18.9,27.6-43.8,27.6-75c0-31.8-8.4-56.7-25.5-74.6
						C2147.3,515.7,2123.5,506.7,2092.9,506.7z M2130.2,659c-9.5,11.5-22.8,17.3-40.3,17.3c-17.1,0-30.8-5.9-40.9-17.7
						c-10.1-11.8-15.2-28-15.2-48.5c0-21.3,5.1-38,15.2-49.9c10.1-12,23.8-18.1,41.1-18.1c17.5,0,30.8,5.9,40,17.7
						c9.5,11.5,14.1,28.2,14.1,49.7S2139.5,647.4,2130.2,659z"/>
					<path class="st1" d="M2407.1,652.6c-1.7,6.6-2.7,12.2-2.9,16.9h-1.2c-0.6-6.8-1.5-12.5-2.5-16.9l-35.2-141.4h-41.5l-39.6,140.5
						c-1.7,6.1-2.7,12-3.1,17.3h-1.2c-0.4-7-1.2-12.7-2.3-16.9l-35.4-141h-45.8l57.1,195.4h45.5l38.6-132.7c1.9-7,3.1-12.5,3.3-16.9
						h0.8c0.4,6.6,1.2,12.2,2.7,17.3l35.6,132.5h46.4l57.7-195.6h-42.2L2407.1,652.6z"/>
					<path class="st1" d="M2625.7,632c-2.5-5.9-6.3-11.1-10.9-15.6c-4.7-4.7-10.3-8.6-17.1-12.2c-6.6-3.5-14.1-7.2-22.6-10.5
						c-6.3-2.3-12-4.3-16.9-6.1c-4.9-1.9-9.1-3.7-12.7-6.1c-3.5-2.3-6.3-4.9-8-7.8c-1.9-2.9-2.7-6.6-2.7-10.7c0-3.3,1-6.6,2.7-9.5
						s4.3-5.3,7.4-7.4c3.1-2.1,7.2-3.7,11.5-4.9c4.4-1.1,9.5-1.7,15.2-1.7c17.9,0,33.7,4.7,47.4,14.1v-38.8
						c-14.4-5.5-30.4-8.2-48.5-8.2c-10.1,0-20,1.2-29.5,3.7c-9.5,2.5-17.9,6.3-25.5,11.1c-7.6,4.9-13.5,10.9-17.9,18.1
						c-4.5,7.2-6.8,15.4-6.8,24.9c0,7.6,1,14.4,3.1,20c2.3,5.7,5.5,10.9,9.7,15.4c4.3,4.7,9.5,8.6,16,12.2c6.6,3.5,13.7,7,21.7,10.1
						c6.6,2.5,12.5,4.7,17.7,6.6c5.3,1.9,9.9,4.3,13.7,6.6c3.7,2.3,7,5.1,9.3,8.2c2.3,3.1,3.3,7,3.3,11.3c0,15.8-13.3,23.6-40,23.6
						c-20,0-38.2-6.3-54.8-18.9v41.1c15.6,7,34.1,10.5,55.4,10.9c11.1,0,21.7-1.2,31.6-3.5c9.9-2.3,18.7-5.9,26.3-10.7
						c7.6-4.9,13.7-10.9,18.3-18.3c4.7-7.4,7-16,7-25.9C2629.6,644.8,2628.3,637.9,2625.7,632z"/>
				</g>
				<g>
					<path class="st1" d="M5275.9,465.6c-6.8,4.3-13.6,7.8-20.4,11.2c-6.6,3.4-13.3,6.3-20.4,9.2c-6.8,2.5-14,5.3-21.4,7.6v38
						c11.9-3,22.5-6.6,31.8-10.6c9.4-4.1,18-8.9,26.1-14.7v227.2h44.5V451.7v-0.2H5297C5289.8,456.8,5282.6,461.5,5275.9,465.6z"/>
					<path class="st1" d="M5441.7,451.5c-7.2,5.3-14.5,10-21.2,14c-6.8,4.3-13.6,7.8-20.4,11.2c-6.6,3.4-13.3,6.3-20.4,9.2
						c-6.8,2.5-14,5.3-21.4,7.6v38c11.9-3,22.5-6.6,31.8-10.6c9.4-4.1,18-8.9,26.1-14.7v227.2h44.5V451.7v-0.2H5441.7z"/>
				</g>
				<g>
					<g>
						<rect x="509.7" y="334.4" class="st2" width="203.9" height="210.6"/>
					</g>
					<g>
						<rect x="744.9" y="334.4" class="st2" width="203.9" height="210.6"/>
					</g>
					<g>
						<rect x="509.7" y="582" class="st2" width="203.9" height="210.6"/>
					</g>
					<g>
						<rect x="744.9" y="582" class="st2" width="203.9" height="210.6"/>
					</g>
				</g>
			</g>
			<g>
				<path class="st1" d="M5630.7,476.7c-5.8,0-10.8-2-14.9-5.9c-4.1-4-6.1-9.1-6.1-15.1c0-6.1,2.1-11.1,6.1-15.2
					c4.1-4.1,9.1-6,14.9-6c5.9,0,11,2,15.2,6c4.2,4.1,6.2,9.2,6.2,15.2c0,5.8-2.1,10.8-6.2,14.9
					C5641.7,474.6,5636.6,476.7,5630.7,476.7z M5646.5,731.7h-32.6V528.3h32.6V731.7z"/>
				<path class="st1" d="M5918.3,729.7c-7.7,4.3-17.8,6.3-30.4,6.3c-35.6,0-53.5-19.9-53.5-59.6V556.1h-35v-27.8h35v-49.6l32.6-10.5
					v60.2h51.3v27.8H5867v114.5c0,13.6,2.3,23.4,7,29.2s12.3,8.7,23.1,8.7c8.2,0,15.3-2.3,21.2-6.8L5918.3,729.7L5918.3,729.7z"/>
				<path class="st1" d="M6107.3,731.7h-32.6v-31.8h-0.8c-14.1,24.3-35.1,36.5-62.5,36.5c-20.3,0-36.1-5.4-47.5-16.1
					c-11.4-10.7-17.2-25-17.2-42.8c0-38,22.4-60.1,67.1-66.4l61-8.5c0-34.5-13.9-51.8-41.9-51.8c-24.5,0-46.6,8.3-66.4,25.1v-33.4
					c20-12.7,43.1-19,69.2-19c47.9,0,71.7,25.3,71.7,75.8L6107.3,731.7L6107.3,731.7z M6074.8,628.8l-49.1,6.8
					c-15.1,2.1-26.5,5.8-34.1,11.2c-7.7,5.4-11.5,14.9-11.5,28.5c0,9.9,3.5,18,10.6,24.3c7.1,6.2,16.5,9.5,28.3,9.5
					c16.1,0,29.5-5.6,40-17c10.5-11.3,15.8-25.7,15.8-43L6074.8,628.8L6074.8,628.8z"/>
				<path class="st1" d="M6337.5,731.7H6305v-116c0-43.2-15.8-64.7-47.2-64.7c-16.3,0-29.8,6.1-40.5,18.4
					c-10.6,12.3-16,27.7-16,46.4v116h-32.6V528.3h32.6v33.8h0.8c15.4-25.7,37.7-38.5,66.8-38.5c22.3,0,39.2,7.2,51.1,21.5
					c11.8,14.4,17.7,35.2,17.7,62.3v124.2L6337.5,731.7L6337.5,731.7z"/>
				<path class="st1" d="M6431.6,731.7H6399V528.3h32.6V731.7z"/>
				<path class="st1" d="M6659.4,528.3l-93.6,236c-16.6,42.1-40.2,63.1-70.3,63.1c-8.4,0-15.6-0.8-21.2-2.6v-29.2
					c7,2.4,13.4,3.5,19.2,3.5c16.4,0,28.7-9.8,36.9-29.4l16.3-38.5l-79.5-203.1h36.2l55,156.6c0.6,2,2.1,7.2,4.2,15.5h1.1
					c0.6-3.2,2-8.2,4-15.1l57.8-156.9L6659.4,528.3L6659.4,528.3z"/>
				<path class="st1" d="M6726.9,731.7h-32.6V528.3h32.6V731.7z"/>
				<path class="st1" d="M6961.7,731.7h-32.6v-116c0-43.2-15.8-64.7-47.2-64.7c-16.3,0-29.8,6.1-40.5,18.4
					c-10.6,12.3-16,27.7-16,46.4v116h-32.6V528.3h32.6v33.8h0.8c15.4-25.7,37.7-38.5,66.8-38.5c22.3,0,39.2,7.2,51.1,21.5
					c11.8,14.4,17.7,35.2,17.7,62.3v124.2L6961.7,731.7L6961.7,731.7z"/>
			</g>
		</g>
		<rect x="5529.6" y="430.2" class="st1" width="35.7" height="106.9"/>
	</g>
</g>
</svg>
